<?xml version="1.0" encoding="utf-8"?>
<!-- Generator: Adobe Illustrator 23.1.0, SVG Export Plug-In . SVG Version: 6.00 Build 0)  -->
<svg version="1.1" id="Capa_1" xmlns="http://www.w3.org/2000/svg" xmlns:xlink="http://www.w3.org/1999/xlink" x="0px" y="0px"
	 viewBox="0 0 595.28 595.28" style="enable-background:new 0 0 595.28 595.28;" xml:space="preserve">
<style type="text/css">
	.st0{fill:#BE1622;}
	.st1{fill:#FFFFFF;}
</style>
<g>
	<circle class="st0" cx="296.21" cy="301.98" r="285.72"/>
	<path class="st1" d="M341.41,349.27c-6.06,25.11-18.08,42.79-41.05,53.2c16.08-53.47,2.06-97.39-38.13-135.95
		c3.11,34.78-15.15,59.34-31.78,84.4c-7.03,10.59-15.26,20.38-22.92,30.54c-33.37,44.26-28.17,101.56,3.89,137.04
		c-0.57,0.65-1.13,1.29-1.7,1.94c-11.46-10.6-24.08-20.21-34.18-31.97c-47.29-55.05-51.21-131.7-10.84-195.75
		c22.69-35.99,51.46-67.08,79.02-99.23c27.16-31.68,43.59-68.31,43.09-111.09c-0.06-5.12-0.55-10.23-0.84-15.4
		c53.15,8.51,127.25,144.24,74.8,235.45c19.6-8.36,27.9-25.83,33.99-73.91c9.16,7.78,17.8,13.78,24.8,21.31
		c22.86,24.6,31.34,55.15,34.54,87.66c4.47,45.36-2.13,88.61-25.22,128.48c-20.23,34.93-50.52,57.39-90.4,70.97
		C377.93,474.83,391.26,413.66,341.41,349.27z"/>
</g>
</svg>
