<svg id="Capa_1" data-name="Capa 1" xmlns="http://www.w3.org/2000/svg" xmlns:xlink="http://www.w3.org/1999/xlink" viewBox="0 0 614.54 202.12"><defs><style>.cls-1{fill:#be1622;}.cls-2{fill:url(#Degradado_sin_nombre);}.cls-3{fill:#3c3c3b;}</style><linearGradient id="Degradado_sin_nombre" x1="-9.45" y1="111.69" x2="78.47" y2="144.58" gradientTransform="matrix(1, 0, 0, -1, 0, 216)" gradientUnits="userSpaceOnUse"><stop offset="0" stop-color="#f39200"/><stop offset="0.35" stop-color="#f07f06"/><stop offset="1" stop-color="#e94e1b"/></linearGradient></defs><title>burns11</title><path class="cls-1" d="M105.87,135.1h0l-.3-.42q-1.2-1.81-2.55-3.5L66.37,80.78l-34.92,48a47.15,47.15,0,1,0,74.42,6.34ZM66.2,185.89A20.8,20.8,0,1,1,87,165.09,20.8,20.8,0,0,1,66.2,185.89Z" transform="translate(-8.05 -5.66)"/><path class="cls-2" d="M66.29,67.26l44,60.41c1,1.23,1.91,2.52,2.78,3.82l1.36,1.86c13.71-39.9-15.83-97.44-15.83-97.44,1.84,22.62-3.38,34-3.38,34C87,14.52,52.79,5.66,52.79,5.66c10.36,47.44-10.9,61.8-10.9,61.8-.34-25.68-20-32.28-20-32.28S34.11,64.38,19,84.34c-18.19,24-9.57,40.59-3.25,51.29,5-6,5.19-6.64,8.53-10.62Z" transform="translate(-8.05 -5.66)"/><path class="cls-3" d="M168.72,155.05c-6.08-11.45-6.43-15.75-7.52-24.45V37.05h12.61v55.1a53.3,53.3,0,0,1,17.92-14.63,48.94,48.94,0,0,1,21.7-4.82q20.88,0,35.74,15.22T264,124.84a50,50,0,0,1-14.95,36.47,48.81,48.81,0,0,1-36,15.13c-8,0-15.76-1.19-22.64-4.64C172.58,162.85,168.73,155.05,168.72,155.05ZM212,164.27A38.12,38.12,0,0,0,231.66,159a38.87,38.87,0,0,0,14.27-14.63,39.86,39.86,0,0,0,5.31-20,40.52,40.52,0,0,0-5.36-20,38.57,38.57,0,0,0-14.41-14.86,37.78,37.78,0,0,0-19.31-5.27,39.83,39.83,0,0,0-19.81,5.27,36.75,36.75,0,0,0-14.41,14.32,40.82,40.82,0,0,0-5,20.21q0,17.21,11.34,28.72A37.46,37.46,0,0,0,212,164.27Z" transform="translate(-8.05 -5.66)"/><path class="cls-3" d="M213.07,178.05c-9.26,0-16.91-1.57-23.38-4.81-17.76-8.89-22.1-16.83-22.42-17.45-6-11.29-6.55-15.83-7.57-24.07l-.12-.94a1.34,1.34,0,0,1,0-.2V37a1.63,1.63,0,0,1,1.63-1.63h12.61A1.63,1.63,0,0,1,175.44,37V87.78A53.13,53.13,0,0,1,191,76a50.74,50.74,0,0,1,22.41-5c14.32,0,26.74,5.28,36.91,15.71s15.32,23.22,15.32,38.06a51.8,51.8,0,0,1-15.42,37.61A50.52,50.52,0,0,1,213.07,178.05Zm-42.89-23.74c.06.11,4,7.54,21,16,6,3,13.17,4.46,21.91,4.46a47.44,47.44,0,0,0,34.85-14.64,48.65,48.65,0,0,0,14.47-35.32A49.51,49.51,0,0,0,248,89.05a46.79,46.79,0,0,0-34.58-14.72,47.66,47.66,0,0,0-21,4.65,52,52,0,0,0-17.37,14.2,1.63,1.63,0,0,1-2.9-1V38.68h-9.34v91.81l.1.84c1,8.11,1.5,12.18,7.22,22.95C170.17,154.29,170.18,154.3,170.18,154.31ZM212,165.9a39.18,39.18,0,0,1-28.9-12c-7.84-8-11.81-18-11.81-29.87a42.65,42.65,0,0,1,5.25-21,38.42,38.42,0,0,1,15-14.94,41.63,41.63,0,0,1,20.61-5.48,39.55,39.55,0,0,1,20.13,5.49,40.31,40.31,0,0,1,15,15.47,42.34,42.34,0,0,1,5.56,20.83,41.69,41.69,0,0,1-5.52,20.79,40.63,40.63,0,0,1-14.86,15.23A39.86,39.86,0,0,1,212,165.9Zm.18-80a38.34,38.34,0,0,0-19,5.06,35.22,35.22,0,0,0-13.78,13.69A39.38,39.38,0,0,0,174.54,124c0,11,3.66,20.25,10.88,27.58a36,36,0,0,0,26.57,11,36.78,36.78,0,0,0,18.85-5,37.47,37.47,0,0,0,13.68-14,38.49,38.49,0,0,0,5.1-19.18,39.07,39.07,0,0,0-5.15-19.24,37.14,37.14,0,0,0-13.8-14.24A36.18,36.18,0,0,0,212.17,85.86Z" transform="translate(-8.05 -5.66)"/><path class="cls-3" d="M287.88,75.22h12.63a.08.08,0,0,1,.08.08v46q0,16.94,1.8,23.23a25.84,25.84,0,0,0,10.35,14.36q7.65,5.26,18.37,5.27t18-5.13a26.12,26.12,0,0,0,10.17-13.51q2-5.67,2-24.22v-46a.08.08,0,0,1,.08-.08h12.81a.08.08,0,0,1,.08.08v48.45q0,20.44-4.82,30.75a36.6,36.6,0,0,1-14.36,16.12q-9.54,5.81-23.95,5.81T307,170.62a35.9,35.9,0,0,1-14.41-16.3q-4.77-10.48-4.77-31.56V75.3A.07.07,0,0,1,287.88,75.22Z" transform="translate(-8.05 -5.66)"/><path class="cls-3" d="M331.11,178.05c-9.92,0-18.32-2-25-6a37.65,37.65,0,0,1-15.05-17c-3.26-7.17-4.92-18-4.92-32.23V75.3a1.72,1.72,0,0,1,1.71-1.71h12.63a1.72,1.72,0,0,1,1.71,1.71v46c0,11.08.58,18.75,1.74,22.78a24.33,24.33,0,0,0,9.71,13.46,30.17,30.17,0,0,0,17.44,5c6.71,0,12.45-1.63,17.08-4.84A24.71,24.71,0,0,0,357.75,145c1.26-3.61,1.9-11.58,1.9-23.7v-46a1.72,1.72,0,0,1,1.71-1.71h12.81a1.72,1.72,0,0,1,1.71,1.71v48.45c0,13.8-1.67,24.38-5,31.44a38.24,38.24,0,0,1-15,16.82C349.31,176,341,178.05,331.11,178.05ZM289.43,76.85v45.91c0,13.75,1.56,24.14,4.63,30.88a34.6,34.6,0,0,0,13.76,15.58c6.13,3.7,14,5.57,23.29,5.57s17-1.87,23.1-5.57a35.17,35.17,0,0,0,13.73-15.41c3.09-6.62,4.66-16.74,4.66-30.06V76.85h-9.7v44.47c0,12.67-.68,20.76-2.07,24.76a27.86,27.86,0,0,1-10.78,14.31c-5.18,3.6-11.55,5.43-18.94,5.43s-13.94-1.87-19.29-5.56a27.55,27.55,0,0,1-11-15.24c-1.26-4.4-1.87-12.15-1.87-23.69V76.86h-9.53Zm11.08,0h0Z" transform="translate(-8.05 -5.66)"/><path class="cls-3" d="M397.47,131.13v-8.67c0-.07,0-1.37,0-1.45a40.89,40.89,0,0,1,3.89-18c6.08-11.73,10.09-16.13,17.17-20.93s13-7.2,17.65-7.2a22.5,22.5,0,0,1,11.09,3.38.08.08,0,0,1,0,.11l-6.5,10.5a.08.08,0,0,1-.09,0q-8.34-3-16.55,5a43.6,43.6,0,0,0-11.39,17.47q-2.34,8.37-2.34,31.42v33.33a.08.08,0,0,1-.08.08H397.55a.08.08,0,0,1-.08-.08V131.13Z" transform="translate(-8.05 -5.66)"/><path class="cls-3" d="M410.35,177.78H397.54a1.72,1.72,0,0,1-1.71-1.71V121a42.19,42.19,0,0,1,4-18.66.54.54,0,0,1,.05-.11c5.83-11.26,10-16.29,17.7-21.53,7.43-5,13.5-7.48,18.56-7.48a24.12,24.12,0,0,1,11.9,3.6,1.82,1.82,0,0,1,.81,1.07,1.72,1.72,0,0,1-.2,1.31l-6.5,10.51a1.76,1.76,0,0,1-2.05.7c-4.95-1.78-9.81-.28-14.84,4.61a42.29,42.29,0,0,0-11,16.81c-1.49,5.33-2.26,15.75-2.26,30.91v33.33A1.7,1.7,0,0,1,410.35,177.78Zm-11.25-3.26h9.7V142.75c0-15.67.79-26.09,2.4-31.86A45.62,45.62,0,0,1,423,92.69c5.54-5.39,11.27-7.32,17-5.73l5-8.07a19.83,19.83,0,0,0-8.87-2.4c-4.33,0-10,2.33-16.73,6.92-6.49,4.4-10.44,8.38-16.61,20.28A39.37,39.37,0,0,0,399.09,121v53.51Z" transform="translate(-8.05 -5.66)"/><path class="cls-3" d="M458.06,138.88l-.18-10.53c-.08-5.89-.06-8.61.25-14.5.6-11.4,4.58-18.31,9-23.59h0c4.32-4.62,5.69-6.72,13.23-10.71h0A61.27,61.27,0,0,1,505.86,75a39.82,39.82,0,0,1,20.66,5.63A31.85,31.85,0,0,1,540.07,95.8q4,9.49,4,29.76v50.7a.08.08,0,0,1-.08.08H531.59a.08.08,0,0,1-.08-.08v-47q0-17.1-1.44-22.87-2.25-9.81-8.91-13.91t-19.72-4.1A33.63,33.63,0,0,0,480.91,95c-6,4.44-9.31,8.47-9.88,18.55-.38,6.79-.21,13.54-.21,26.56v36.12a.08.08,0,0,1-.08.08H458.11a.08.08,0,0,1-.08-.08V138.88Z" transform="translate(-8.05 -5.66)"/><path class="cls-3" d="M544.06,178H531.61a1.72,1.72,0,0,1-1.71-1.71v-47c0-11.22-.47-18.78-1.39-22.47-1.4-6.1-4.15-10.43-8.18-12.92S509.82,90,501.47,90a32.17,32.17,0,0,0-19.56,6.34c-5.83,4.31-8.69,8-9.22,17.32-.28,4.93-.26,9.84-.23,17.27,0,2.7,0,5.73,0,9.2v36.12a1.72,1.72,0,0,1-1.71,1.71H458.14a1.72,1.72,0,0,1-1.71-1.71V138.89l-.18-10.52c-.08-6.13-.06-8.79.25-14.61.67-12.65,5.38-19.76,9.4-24.55l.07-.08,1.48-1.6c3.32-3.62,5.33-5.8,12.17-9.43h0l.13-.06h0a63.2,63.2,0,0,1,26.15-4.63,41.69,41.69,0,0,1,21.47,5.85,33.64,33.64,0,0,1,14.22,15.89c2.77,6.51,4.18,16.74,4.18,30.4v50.7A1.71,1.71,0,0,1,544.06,178Zm-10.9-3.26h9.34V125.55c0-13.22-1.32-23-3.92-29.12A30.42,30.42,0,0,0,525.7,82.07a38.42,38.42,0,0,0-19.83-5.4A60,60,0,0,0,481.1,81a33.46,33.46,0,0,0-11.24,8.72l-1.5,1.63c-3.72,4.45-8,11-8.59,22.57-.3,5.72-.33,8.34-.25,14.39l.18,10.53V174.7h9.52V140.14c0-3.47,0-6.49,0-9.19,0-7.49-.05-12.43.23-17.46.59-10.5,4.16-15,10.54-19.77a35.4,35.4,0,0,1,21.5-7c9,0,15.89,1.46,20.57,4.34s8.06,8,9.65,14.94c1,4,1.48,11.59,1.48,23.23V174.7Z" transform="translate(-8.05 -5.66)"/><path class="cls-3" d="M620.79,86.08l-8,8.35a.08.08,0,0,1-.11,0q-10.23-9.86-19.84-9.85a15.15,15.15,0,0,0-10.62,4,12.65,12.65,0,0,0-4.41,9.63,13.73,13.73,0,0,0,3.69,9q3.6,4.59,15.22,10.54,14.22,7.29,19.27,14.14a26.15,26.15,0,0,1,5,15.58A27.74,27.74,0,0,1,612.43,168q-8.5,8.42-21.29,8.42a38.1,38.1,0,0,1-16.34-3.65A34.14,34.14,0,0,1,562,162.6a.09.09,0,0,1,0-.1l7.91-9a.09.09,0,0,1,.12,0q9.71,10.92,20.56,10.92a18.46,18.46,0,0,0,12.92-4.91,15.13,15.13,0,0,0,5.36-11.48,14.79,14.79,0,0,0-3.51-9.72q-3.51-4.23-15.94-10.62Q576,121,571.24,114.11a25.29,25.29,0,0,1-4.86-15.31,24.88,24.88,0,0,1,7.7-18.68q7.7-7.43,19.31-7.43,13.56,0,27.4,13.27A.09.09,0,0,1,620.79,86.08Z" transform="translate(-8.05 -5.66)"/><path class="cls-3" d="M591.14,178.05a39.86,39.86,0,0,1-17-3.8,35.88,35.88,0,0,1-13.39-10.65,1.79,1.79,0,0,1,.07-2.18l7.91-9a1.78,1.78,0,0,1,1.28-.58h0a1.68,1.68,0,0,1,1.29.6c6.09,6.85,12.59,10.34,19.32,10.34a16.71,16.71,0,0,0,11.82-4.48,13.45,13.45,0,0,0,4.83-10.27,13.08,13.08,0,0,0-3.14-8.68c-2.19-2.64-7.38-6.07-15.43-10.22-9.26-4.66-15.41-9.28-18.78-14.11a27,27,0,0,1-5.15-16.24A26.56,26.56,0,0,1,573,78.94c5.42-5.23,12.3-7.89,20.45-7.89,9.44,0,19,4.62,28.53,13.72a1.82,1.82,0,0,1,.53,1.21A1.74,1.74,0,0,1,622,87.2l-8,8.35a1.72,1.72,0,0,1-2.42,0c-6.47-6.23-12.77-9.39-18.71-9.39a13.44,13.44,0,0,0-9.52,3.62,11,11,0,0,0-3.88,8.43,12.07,12.07,0,0,0,3.3,7.94c2.29,2.91,7.22,6.31,14.72,10.14,9.8,5,16.29,9.81,19.84,14.62a27.94,27.94,0,0,1,5.27,16.55,29.47,29.47,0,0,1-9,21.65C607.62,175.06,600.06,178.05,591.14,178.05Zm-27-15.44a32.82,32.82,0,0,0,11.39,8.69,36.59,36.59,0,0,0,15.65,3.49c8,0,14.82-2.67,20.15-7.95a25.92,25.92,0,0,0,8-19.32,24.64,24.64,0,0,0-4.65-14.63c-3.18-4.32-9.47-8.91-18.68-13.63-8-4.11-13.19-7.7-15.76-11a15.28,15.28,0,0,1-4-10,14.28,14.28,0,0,1,4.94-10.84A16.82,16.82,0,0,1,592.84,83c6.45,0,13.12,3.11,19.84,9.24l5.84-6.1c-8.5-7.81-16.94-11.75-25.14-11.75-7.27,0-13.38,2.35-18.18,7A23.12,23.12,0,0,0,568,98.82a23.77,23.77,0,0,0,4.55,14.34c3,4.34,9,8.74,17.6,13.1s14,8,16.46,11a16.45,16.45,0,0,1,3.89,10.77,16.74,16.74,0,0,1-5.89,12.68,20.12,20.12,0,0,1-14,5.34c-7.25,0-14.17-3.42-20.59-10.17Zm7.06-8h0S571.15,154.61,571.15,154.6Zm41.59-60.14h0Z" transform="translate(-8.05 -5.66)"/></svg>