<?xml version="1.0" encoding="utf-8"?>
<!-- Generator: Adobe Illustrator 23.1.0, SVG Export Plug-In . SVG Version: 6.00 Build 0)  -->
<svg version="1.1" id="Capa_1" xmlns="http://www.w3.org/2000/svg" xmlns:xlink="http://www.w3.org/1999/xlink" x="0px" y="0px"
	 viewBox="0 0 595.28 595.28" style="enable-background:new 0 0 595.28 595.28;" xml:space="preserve">
<style type="text/css">
	.st0{fill:#E6332A;}
</style>
<g>
	<path class="st0" d="M547.9,190.76H47.65c-11.93,0-21.61-9.67-21.61-21.61v-10.73c0-11.93,9.67-21.61,21.61-21.61H547.9
		c11.93,0,21.61,9.67,21.61,21.61v10.73C569.51,181.09,559.84,190.76,547.9,190.76z"/>
	<path class="st0" d="M547.06,323.59H48.49c-12.4,0-22.45-10.05-22.45-22.45v-9.05c0-12.4,10.05-22.45,22.45-22.45h498.58
		c12.4,0,22.45,10.05,22.45,22.45v9.05C569.51,313.54,559.46,323.59,547.06,323.59z"/>
	<path class="st0" d="M545.58,458.65H49.97c-13.22,0-23.93-10.71-23.93-23.93v-6.08c0-13.22,10.71-23.93,23.93-23.93h495.61
		c13.22,0,23.93,10.71,23.93,23.93v6.08C569.51,447.93,558.8,458.65,545.58,458.65z"/>
</g>
</svg>
