<?xml version="1.0" encoding="utf-8"?>
<!-- Generator: Adobe Illustrator 23.1.0, SVG Export Plug-In . SVG Version: 6.00 Build 0)  -->
<svg version="1.1" id="Capa_1" xmlns="http://www.w3.org/2000/svg" xmlns:xlink="http://www.w3.org/1999/xlink" x="0px" y="0px"
	 viewBox="0 0 474.89 457.28" style="enable-background:new 0 0 474.89 457.28;" xml:space="preserve">
<style type="text/css">
	.st0{fill:#2D2E83;stroke:#2D2E83;stroke-width:5;stroke-miterlimit:10;}
	.st1{fill:#3C3C3B;}
	.st2{fill:#BE1622;}
	.st3{fill:url(#SVGID_1_);}
	.st4{fill:#F9B233;}
</style>
<g>
	<path class="st0" d="M34.65,388.94c-4.96-8.27-7.94-16.4-8.93-24.39c0-57.38,0-86.01,0-85.9H37.3v50.6
		c4.9-6.01,10.39-10.49,16.45-13.43c6.06-2.95,12.7-4.42,19.92-4.42c12.79,0,23.73,4.66,32.82,13.97
		c9.09,9.32,13.64,20.61,13.64,33.9c0,13.06-4.58,24.22-13.72,33.48c-9.15,9.26-20.17,13.89-33.07,13.89
		c-7.39,0-14.32-1.42-20.79-4.26C46.08,399.53,40.11,395.06,34.65,388.94z M72.35,395.47c6.56,0,12.58-1.61,18.06-4.84
		c5.48-3.22,9.85-7.7,13.1-13.43c3.25-5.73,4.88-11.85,4.88-18.35c0-6.39-1.64-12.53-4.92-18.4c-3.28-5.87-7.69-10.42-13.23-13.64
		c-5.54-3.22-11.45-4.84-17.73-4.84c-6.39,0-12.46,1.61-18.19,4.84c-5.73,3.22-10.14,7.61-13.23,13.15
		c-3.09,5.54-4.63,11.73-4.63,18.56c0,10.53,3.47,19.32,10.42,26.37C53.83,391.94,62.32,395.47,72.35,395.47z"/>
	<path class="st0" d="M141.97,313.7h11.74v42.33c0,10.36,0.55,17.47,1.65,21.33c1.65,5.57,4.82,9.96,9.51,13.19
		c4.68,3.22,10.31,4.84,16.87,4.84c6.5,0,12.02-1.57,16.53-4.71c4.52-3.14,7.63-7.28,9.34-12.4c1.21-3.47,1.82-10.88,1.82-22.24
		V313.7h11.91v44.56c0,12.51-1.48,21.92-4.42,28.23c-2.95,6.31-7.34,11.24-13.19,14.8c-5.84,3.55-13.17,5.33-21.99,5.33
		c-8.87,0-16.26-1.78-22.16-5.33c-5.9-3.56-10.31-8.54-13.23-14.96c-2.92-6.42-4.38-16.08-4.38-28.98V313.7z"/>
	<path class="st0" d="M242.66,365.04v-10.91c0.88-5.46,2.15-9.89,3.8-13.31c3.86-9.48,9.04-16.42,15.54-20.83
		c6.5-4.41,11.9-6.61,16.2-6.61c3.2,0,6.62,1.05,10.25,3.14l-6.04,9.75c-5.13-1.87-10.21-0.36-15.25,4.55
		c-5.04,4.91-8.53,10.25-10.46,16.04c-1.44,5.13-2.15,14.74-2.15,28.85v30.67h-11.9V365.04z"/>
	<path class="st0" d="M298.3,372.15l-0.17-9.67c-0.17-4.74,0.03-8.76,0.58-12.07c1.21-10.42,3.86-18.05,7.94-22.9
		c3.97-4.24,8.02-7.52,12.15-9.84c6.83-2.92,14.63-4.3,23.4-4.13c6.83,0,13.16,1.72,18.97,5.17c5.81,3.45,9.96,8.08,12.44,13.89
		c2.48,5.82,3.72,14.92,3.72,27.32v46.63h-11.57v-43.24c0-10.47-0.44-17.47-1.32-21c-1.38-6.01-4.11-10.26-8.18-12.77
		c-4.08-2.51-10.11-3.76-18.11-3.76c-7.06,0-13.34,2.04-18.85,6.12c-5.51,4.08-8.08,9.65-7.69,16.7
		c-1.05,4.52-1.57,12.76-1.57,24.72v33.23H298.3V372.15z"/>
	<path class="st0" d="M447.78,323.62l-7.44,7.77c-6.28-6.06-12.37-9.09-18.27-9.09c-3.8,0-7.06,1.24-9.75,3.72
		c-2.7,2.48-4.05,5.43-4.05,8.85c0,2.87,1.13,5.62,3.39,8.27c2.2,2.81,6.86,6.04,13.97,9.67c8.71,4.46,14.6,8.79,17.69,12.98
		c3.03,4.25,4.55,9.01,4.55,14.3c0,7.39-2.6,13.66-7.81,18.81c-5.21,5.15-11.73,7.73-19.55,7.73c-5.24,0-10.24-1.12-15.01-3.35
		c-4.77-2.23-8.69-5.36-11.78-9.38l7.36-8.35c5.95,6.73,12.26,10.09,18.93,10.09c4.63,0,8.58-1.5,11.86-4.51s4.92-6.52,4.92-10.54
		c0-3.36-1.08-6.34-3.22-8.93s-7.03-5.84-14.63-9.76c-8.21-4.13-13.78-8.29-16.7-12.48c-2.98-4.08-4.46-8.76-4.46-14.05
		c0-6.89,2.36-12.61,7.07-17.16c4.71-4.55,10.62-6.82,17.73-6.82C430.88,311.39,439.29,315.47,447.78,323.62z"/>
</g>
<g>
	<path class="st1" d="M124.66,423.47l-1.01,1.05c-0.85-0.82-1.67-1.23-2.47-1.23c-0.51,0-0.95,0.17-1.32,0.5
		c-0.36,0.33-0.55,0.73-0.55,1.2c0,0.39,0.15,0.76,0.46,1.12c0.3,0.38,0.93,0.82,1.89,1.31c1.18,0.6,1.97,1.19,2.39,1.75
		c0.41,0.57,0.61,1.22,0.61,1.93c0,1-0.35,1.85-1.06,2.54c-0.7,0.7-1.59,1.04-2.64,1.04c-0.71,0-1.38-0.15-2.03-0.45
		s-1.18-0.72-1.59-1.27l0.99-1.13c0.8,0.91,1.66,1.36,2.56,1.36c0.63,0,1.16-0.2,1.6-0.61c0.44-0.41,0.67-0.88,0.67-1.42
		c0-0.46-0.15-0.86-0.44-1.21c-0.29-0.35-0.95-0.79-1.98-1.32c-1.11-0.56-1.86-1.12-2.26-1.69c-0.4-0.55-0.6-1.18-0.6-1.9
		c0-0.93,0.32-1.7,0.96-2.32c0.64-0.62,1.44-0.92,2.4-0.92C122.37,421.82,123.51,422.37,124.66,423.47z"/>
	<path class="st1" d="M127.99,417.39c0.36,0,0.66,0.13,0.92,0.38c0.26,0.25,0.39,0.56,0.39,0.92s-0.13,0.67-0.39,0.92
		c-0.26,0.26-0.56,0.39-0.92,0.39c-0.36,0-0.66-0.13-0.92-0.39c-0.25-0.26-0.38-0.56-0.38-0.92s0.13-0.66,0.38-0.92
		C127.32,417.51,127.63,417.39,127.99,417.39z M127.21,422.43h1.58v12.26h-1.58V422.43z"/>
	<path class="st1" d="M138.2,423.47l-1.01,1.05c-0.85-0.82-1.67-1.23-2.47-1.23c-0.51,0-0.95,0.17-1.32,0.5
		c-0.36,0.33-0.55,0.73-0.55,1.2c0,0.39,0.15,0.76,0.46,1.12c0.3,0.38,0.93,0.82,1.89,1.31c1.18,0.6,1.97,1.19,2.39,1.75
		c0.41,0.57,0.61,1.22,0.61,1.93c0,1-0.35,1.85-1.06,2.54c-0.7,0.7-1.59,1.04-2.64,1.04c-0.71,0-1.38-0.15-2.03-0.45
		s-1.18-0.72-1.59-1.27l0.99-1.13c0.8,0.91,1.66,1.36,2.56,1.36c0.63,0,1.16-0.2,1.6-0.61c0.44-0.41,0.67-0.88,0.67-1.42
		c0-0.46-0.15-0.86-0.44-1.21c-0.29-0.35-0.95-0.79-1.98-1.32c-1.11-0.56-1.86-1.12-2.26-1.69c-0.4-0.55-0.6-1.18-0.6-1.9
		c0-0.93,0.32-1.7,0.96-2.32c0.64-0.62,1.44-0.92,2.4-0.92C135.92,421.82,137.05,422.37,138.2,423.47z"/>
	<path class="st1" d="M145.89,434.26c-0.82,0.31-1.55,0.46-2.19,0.44c-1.21-0.07-2.16-0.69-2.86-1.88
		c-0.42-0.75-0.63-1.56-0.61-2.46v-12.73h1.59v5.92h2.92v1.35h-2.91v5.19c-0.04,1.28,0.39,2.27,1.3,2.96
		c0.75,0.35,1.5,0.32,2.28-0.1C145.6,433.51,145.76,433.95,145.89,434.26z"/>
	<path class="st1" d="M158.72,430.33l1.32,0.7c-0.42,0.86-0.92,1.55-1.5,2.07s-1.22,0.92-1.93,1.19c-0.72,0.27-1.52,0.41-2.43,0.41
		c-2,0-3.56-0.65-4.68-1.96s-1.69-2.78-1.69-4.43c0-1.56,0.48-2.94,1.43-4.16c1.21-1.55,2.83-2.32,4.86-2.32
		c2.08,0,3.74,0.79,5,2.38c0.89,1.12,1.33,2.51,1.34,4.18h-11.01c0.03,1.43,0.48,2.6,1.36,3.51c0.88,0.91,1.96,1.37,3.25,1.37
		c0.63,0,1.23-0.11,1.82-0.33s1.09-0.51,1.5-0.87C157.79,431.71,158.23,431.13,158.72,430.33z M158.72,427.03
		c-0.21-0.84-0.51-1.51-0.92-2.02c-0.4-0.5-0.94-0.91-1.6-1.22c-0.66-0.31-1.36-0.46-2.09-0.46c-1.2,0-2.23,0.39-3.1,1.16
		c-0.63,0.57-1.1,1.41-1.42,2.54H158.72z"/>
	<path class="st1" d="M163.36,429.93v-1.96c0.13-1.67,0.48-2.89,1.05-3.67c0.47-0.71,1.08-1.27,1.84-1.69
		c0.5-0.32,1.21-0.49,2.13-0.51c0.6,0,1.2,0.11,1.81,0.34c0.61,0.22,1.08,0.52,1.42,0.89c0.34,0.37,0.67,0.93,1.02,1.68
		c0.19-0.48,0.58-1.04,1.17-1.68c0.29-0.25,0.67-0.49,1.13-0.73c0.31-0.2,1.04-0.37,2.18-0.5c0.85,0,1.67,0.21,2.45,0.64
		c0.78,0.42,1.33,1.02,1.65,1.79c0.32,0.77,0.48,1.92,0.48,3.45v6.69h-1.61v-6.69c0-1.31-0.09-2.21-0.28-2.7
		c-0.19-0.49-0.51-0.89-0.96-1.19c-0.45-0.3-1-0.45-1.64-0.45c-1.21,0.08-2.24,0.67-3.1,1.75c-0.34,0.46-0.59,1.49-0.76,3.07v6.21
		h-1.58v-6.28c0-1.48-0.16-2.48-0.49-3.01c-0.33-0.53-0.72-0.96-1.17-1.27c-0.45-0.32-1.02-0.47-1.7-0.47
		c-0.73,0-1.36,0.19-1.88,0.56c-0.53,0.37-0.94,0.93-1.23,1.67c-0.3,0.74-0.42,1.95-0.36,3.62v5.2h-1.56V429.93z"/>
	<path class="st1" d="M190.78,421.82c1.88,0,3.45,0.68,4.69,2.04c1.15,1.24,1.72,2.72,1.72,4.44c0.01,4.23,0.01,6.38,0,6.45
		c-0.72,0-1.27,0-1.67,0c0-0.05,0-0.98,0-2.78c-0.87,1.62-2.46,2.53-4.75,2.73c-1.88,0-3.41-0.64-4.6-1.92
		c-1.19-1.28-1.78-2.77-1.78-4.48c0-1.7,0.56-3.17,1.69-4.43C187.33,422.51,188.89,421.82,190.78,421.82z M190.78,423.36
		c-1.3,0-2.42,0.48-3.36,1.45c-0.94,0.97-1.41,2.14-1.41,3.51c0,0.89,0.24,1.74,0.72,2.56s1.29,1.51,2.44,2.08
		c2.88,0.64,4.92-0.67,6.13-3.92c0.07-1.04-0.04-2.04-0.33-3c-0.21-0.43-0.5-0.84-0.86-1.23
		C193.19,423.85,192.08,423.36,190.78,423.36z"/>
	<path class="st1" d="M206.41,423.47l-1.01,1.05c-0.85-0.82-1.67-1.23-2.47-1.23c-0.51,0-0.95,0.17-1.32,0.5
		c-0.36,0.33-0.55,0.73-0.55,1.2c0,0.39,0.15,0.76,0.46,1.12c0.3,0.38,0.93,0.82,1.89,1.31c1.18,0.6,1.97,1.19,2.39,1.75
		c0.41,0.57,0.61,1.22,0.61,1.93c0,1-0.35,1.85-1.06,2.54c-0.7,0.7-1.59,1.04-2.64,1.04c-0.71,0-1.38-0.15-2.03-0.45
		s-1.18-0.72-1.59-1.27l0.99-1.13c0.8,0.91,1.66,1.36,2.56,1.36c0.63,0,1.16-0.2,1.6-0.61c0.44-0.41,0.67-0.88,0.67-1.42
		c0-0.46-0.15-0.86-0.44-1.21c-0.29-0.35-0.95-0.79-1.98-1.32c-1.11-0.56-1.86-1.12-2.26-1.69c-0.4-0.55-0.6-1.18-0.6-1.9
		c0-0.93,0.32-1.7,0.96-2.32c0.64-0.62,1.44-0.92,2.4-0.92C204.13,421.82,205.27,422.37,206.41,423.47z"/>
	<path class="st1" d="M221.13,421.82c1.88,0,3.45,0.68,4.69,2.04c1.15,1.24,1.72,2.72,1.72,4.44c0.01,4.23,0.01,6.38,0,6.45
		c-0.72,0-1.27,0-1.67,0c0-0.05,0-0.98,0-2.78c-0.87,1.62-2.46,2.53-4.75,2.73c-1.88,0-3.41-0.64-4.6-1.92
		c-1.19-1.28-1.78-2.77-1.78-4.48c0-1.7,0.56-3.17,1.69-4.43C217.68,422.51,219.25,421.82,221.13,421.82z M221.13,423.36
		c-1.3,0-2.42,0.48-3.36,1.45c-0.94,0.97-1.41,2.14-1.41,3.51c0,0.89,0.24,1.74,0.72,2.56s1.29,1.51,2.44,2.08
		c2.88,0.64,4.92-0.67,6.13-3.92c0.07-1.04-0.04-2.04-0.33-3c-0.21-0.43-0.5-0.84-0.86-1.23
		C223.54,423.85,222.43,423.36,221.13,423.36z"/>
	<path class="st1" d="M230.6,430.03l-0.02-1.31c-0.02-0.64,0-1.18,0.08-1.63c0.16-1.41,0.52-2.44,1.07-3.1
		c0.54-0.57,1.08-1.02,1.64-1.33c0.92-0.39,1.98-0.58,3.16-0.56c0.92,0,1.78,0.23,2.56,0.7c0.79,0.47,1.35,1.09,1.68,1.88
		s0.5,2.02,0.5,3.69v6.3h-1.56v-5.84c0-1.42-0.06-2.36-0.18-2.84c-0.19-0.81-0.56-1.39-1.11-1.73c-0.55-0.34-1.37-0.51-2.45-0.51
		c-0.95,0-1.8,0.28-2.55,0.83c-0.74,0.55-1.09,1.3-1.04,2.26c-0.14,0.61-0.21,1.72-0.21,3.34v4.49h-1.59V430.03z"/>
	<path class="st1" d="M249.55,434.26c-0.82,0.31-1.55,0.46-2.19,0.44c-1.21-0.07-2.16-0.69-2.86-1.88
		c-0.42-0.75-0.63-1.56-0.62-2.46v-12.73h1.59v5.92h2.92v1.35h-2.91v5.19c-0.04,1.28,0.39,2.27,1.3,2.96
		c0.75,0.35,1.5,0.32,2.28-0.1C249.26,433.51,249.42,433.95,249.55,434.26z"/>
	<path class="st1" d="M252.61,417.39c0.36,0,0.67,0.13,0.92,0.38c0.26,0.25,0.39,0.56,0.39,0.92s-0.13,0.67-0.39,0.92
		c-0.26,0.26-0.56,0.39-0.92,0.39s-0.66-0.13-0.92-0.39s-0.38-0.56-0.38-0.92s0.13-0.66,0.38-0.92S252.25,417.39,252.61,417.39z
		 M251.83,422.43h1.58v12.26h-1.58V422.43z"/>
	<path class="st1" d="M256.66,430.03l-0.02-1.31c-0.02-0.64,0-1.18,0.08-1.63c0.16-1.41,0.52-2.44,1.07-3.1
		c0.54-0.57,1.08-1.02,1.64-1.33c0.92-0.39,1.98-0.58,3.16-0.56c0.92,0,1.78,0.23,2.57,0.7c0.79,0.47,1.35,1.09,1.68,1.88
		s0.5,2.02,0.5,3.69v6.3h-1.56v-5.84c0-1.42-0.06-2.36-0.18-2.84c-0.19-0.81-0.56-1.39-1.11-1.73c-0.55-0.34-1.37-0.51-2.45-0.51
		c-0.95,0-1.8,0.28-2.55,0.83c-0.75,0.55-1.09,1.3-1.04,2.26c-0.14,0.61-0.21,1.72-0.21,3.34v4.49h-1.59V430.03z"/>
	<path class="st1" d="M282.59,424.68l-1.25,0.78c-1.08-1.45-2.55-2.17-4.42-2.17c-1.5,0-2.74,0.48-3.73,1.44
		c-0.99,0.96-1.48,2.13-1.48,3.51c0,0.89,0.23,1.74,0.68,2.53c0.46,0.79,1.08,1.41,1.87,1.84c0.79,0.43,1.68,0.65,2.66,0.65
		c1.81,0,3.29-0.71,4.42-2.15l1.25,0.82c-0.59,0.88-1.38,1.56-2.36,2.04s-2.11,0.72-3.38,0.72c-1.93,0-3.53-0.61-4.81-1.84
		s-1.92-2.72-1.92-4.48c0-1.19,0.3-2.3,0.9-3.31c0.6-1.02,1.42-1.81,2.46-2.38s2.21-0.85,3.5-0.85c0.8,0,1.58,0.12,2.34,0.37
		c0.76,0.25,1.4,0.57,1.93,0.97C281.78,423.56,282.23,424.06,282.59,424.68z"/>
	<path class="st1" d="M295.93,430.33l1.32,0.7c-0.42,0.86-0.92,1.55-1.5,2.07c-0.57,0.52-1.22,0.92-1.93,1.19
		c-0.72,0.27-1.52,0.41-2.42,0.41c-2,0-3.56-0.65-4.68-1.96s-1.69-2.78-1.69-4.43c0-1.56,0.48-2.94,1.43-4.16
		c1.21-1.55,2.83-2.32,4.86-2.32c2.08,0,3.74,0.79,5,2.38c0.89,1.12,1.33,2.51,1.34,4.18h-11.01c0.03,1.43,0.48,2.6,1.36,3.51
		c0.88,0.91,1.96,1.37,3.25,1.37c0.63,0,1.23-0.11,1.82-0.33c0.59-0.22,1.09-0.51,1.5-0.87
		C294.99,431.71,295.44,431.13,295.93,430.33z M295.93,427.03c-0.21-0.84-0.51-1.51-0.92-2.02s-0.93-0.91-1.6-1.22
		c-0.66-0.31-1.36-0.46-2.09-0.46c-1.2,0-2.23,0.39-3.1,1.16c-0.63,0.57-1.1,1.41-1.42,2.54H295.93z"/>
	<path class="st1" d="M300.57,430.03l-0.02-1.31c-0.02-0.64,0-1.18,0.08-1.63c0.16-1.41,0.52-2.44,1.07-3.1
		c0.54-0.57,1.08-1.02,1.64-1.33c0.92-0.39,1.98-0.58,3.16-0.56c0.92,0,1.78,0.23,2.57,0.7c0.79,0.47,1.35,1.09,1.68,1.88
		s0.5,2.02,0.5,3.69v6.3h-1.56v-5.84c0-1.42-0.06-2.36-0.18-2.84c-0.19-0.81-0.56-1.39-1.11-1.73c-0.55-0.34-1.37-0.51-2.45-0.51
		c-0.95,0-1.8,0.28-2.55,0.83c-0.75,0.55-1.09,1.3-1.04,2.26c-0.14,0.61-0.21,1.72-0.21,3.34v4.49h-1.59V430.03z"/>
	<path class="st1" d="M323.53,434.12c-0.88,0.38-1.81,0.58-2.81,0.58c-1.74,0-3.23-0.63-4.47-1.88c-1.24-1.25-1.85-2.76-1.85-4.53
		c0-1.79,0.61-3.32,1.84-4.58c1.23-1.26,2.71-1.89,4.44-1.89c0.98,0,1.87,0.2,2.69,0.6c0.82,0.4,1.56,1,2.22,1.82v-6.84h1.56
		c0-0.01,0,3.86,0,11.61c-0.13,1.08-0.54,2.18-1.21,3.3C325.21,433.13,324.41,433.74,323.53,434.12z M324.3,431.76
		c0.94-0.95,1.41-2.14,1.41-3.57c0-0.92-0.21-1.76-0.63-2.51c-0.42-0.75-1.01-1.34-1.79-1.78c-0.77-0.44-1.59-0.65-2.46-0.65
		c-0.85,0-1.65,0.22-2.4,0.65c-0.75,0.44-1.34,1.05-1.79,1.84c-0.44,0.79-0.67,1.62-0.67,2.49c0,0.88,0.22,1.71,0.66,2.48
		c0.44,0.78,1.03,1.38,1.77,1.82c0.74,0.44,1.55,0.65,2.44,0.65C322.21,433.19,323.36,432.71,324.3,431.76z"/>
	<path class="st1" d="M330.94,417.39c0.36,0,0.67,0.13,0.92,0.38c0.26,0.25,0.39,0.56,0.39,0.92s-0.13,0.67-0.39,0.92
		c-0.26,0.26-0.56,0.39-0.92,0.39s-0.66-0.13-0.92-0.39s-0.38-0.56-0.38-0.92s0.13-0.66,0.38-0.92S330.58,417.39,330.94,417.39z
		 M330.15,422.43h1.58v12.26h-1.58V422.43z"/>
	<path class="st1" d="M340.78,421.82c1.88,0,3.45,0.68,4.69,2.04c1.13,1.25,1.69,2.73,1.69,4.44s-0.6,3.2-1.79,4.48
		c-1.19,1.28-2.72,1.92-4.59,1.92c-1.88,0-3.41-0.64-4.6-1.92c-1.19-1.28-1.78-2.77-1.78-4.48c0-1.7,0.56-3.17,1.69-4.43
		C337.33,422.51,338.9,421.82,340.78,421.82z M340.78,423.36c-1.3,0-2.42,0.48-3.36,1.45c-0.94,0.97-1.41,2.14-1.41,3.51
		c0,0.89,0.21,1.71,0.64,2.49c0.43,0.77,1.01,1.36,1.74,1.78c0.73,0.41,1.53,0.62,2.39,0.62c0.88,0,1.68-0.21,2.41-0.62
		c0.73-0.41,1.3-1.01,1.73-1.78c0.42-0.77,0.64-1.6,0.64-2.49c0-1.37-0.47-2.54-1.41-3.51
		C343.21,423.85,342.08,423.36,340.78,423.36z"/>
	<path class="st1" d="M356.23,423.47l-1.01,1.05c-0.85-0.82-1.67-1.23-2.47-1.23c-0.51,0-0.95,0.17-1.32,0.5
		c-0.37,0.33-0.55,0.73-0.55,1.2c0,0.39,0.15,0.76,0.46,1.12c0.3,0.38,0.93,0.82,1.89,1.31c1.18,0.6,1.97,1.19,2.39,1.75
		c0.41,0.57,0.61,1.22,0.61,1.93c0,1-0.35,1.85-1.06,2.54c-0.7,0.7-1.58,1.04-2.64,1.04c-0.71,0-1.38-0.15-2.03-0.45
		c-0.64-0.3-1.18-0.72-1.59-1.27l0.99-1.13c0.8,0.91,1.66,1.36,2.56,1.36c0.63,0,1.16-0.2,1.6-0.61c0.44-0.41,0.67-0.88,0.67-1.42
		c0-0.46-0.15-0.86-0.44-1.21c-0.29-0.35-0.95-0.79-1.98-1.32c-1.11-0.56-1.86-1.12-2.26-1.69c-0.4-0.55-0.6-1.18-0.6-1.9
		c0-0.93,0.32-1.7,0.96-2.32c0.64-0.62,1.44-0.92,2.4-0.92C353.94,421.82,355.08,422.37,356.23,423.47z"/>
</g>
<g>
	<path class="st2" d="M291.87,184.59h0.04l-0.39-0.54c-1.02-1.55-2.12-3.05-3.28-4.5l-47.17-64.81l-44.91,61.7
		c-9.9,10.79-15.94,25.18-15.94,40.97c0,33.49,27.15,60.64,60.64,60.64s60.64-27.15,60.64-60.64
		C301.51,205.32,297.97,194.05,291.87,184.59z M240.87,249.9c-14.77,0-26.75-11.98-26.75-26.75c0-14.77,11.98-26.75,26.75-26.75
		c14.77,0,26.75,11.98,26.75,26.75C267.62,237.92,255.64,249.9,240.87,249.9z"/>
	<linearGradient id="SVGID_1_" gradientUnits="userSpaceOnUse" x1="143.5936" y1="145.0084" x2="256.65" y2="102.7202">
		<stop  offset="0" style="stop-color:#F39200"/>
		<stop  offset="0.346" style="stop-color:#F07F06"/>
		<stop  offset="1" style="stop-color:#E94E1B"/>
	</linearGradient>
	<path class="st3" d="M240.97,97.36l56.54,77.69c1.26,1.59,2.46,3.24,3.58,4.92l1.74,2.39c17.63-51.3-20.35-125.29-20.35-125.29
		c2.36,29.09-4.34,43.72-4.34,43.72c-10.53-71.22-54.52-82.61-54.52-82.61c13.32,61-14.02,79.46-14.02,79.46
		c-0.44-33.02-25.71-41.51-25.71-41.51s15.71,37.54-3.76,63.21c-23.39,30.85-12.3,52.19-4.17,65.95c6.39-7.73,6.68-8.53,10.97-13.65
		L240.97,97.36z"/>
</g>
<g>
	<path class="st4" d="M-9.48-163.47c0,7.89-1.35,15.47-3.8,22.53l5.24,7.24C-4.15-142.85-2-152.91-2-163.47
		c0-10.97-2.34-21.4-6.52-30.84l-5.16,7.13C-10.96-179.79-9.48-171.8-9.48-163.47z"/>
	<path class="st4" d="M-135.39-163.47c0-8.33,1.49-16.32,4.2-23.72l-5.16-7.13c-4.18,9.44-6.52,19.87-6.52,30.84
		c0,10.56,2.15,20.62,6.04,29.77l5.24-7.24C-134.04-148-135.39-155.58-135.39-163.47z"/>
	<path class="st4" d="M-149.51-163.47c0-12.59,2.89-24.52,8.03-35.16l-4.92-6.79c-6.75,12.5-10.59,26.79-10.59,41.96
		c0,14.76,3.65,28.68,10.07,40.94l4.96-6.84C-146.8-139.75-149.51-151.29-149.51-163.47z"/>
	<path class="st4" d="M4.64-163.47c0,12.17-2.71,23.72-7.54,34.09l4.96,6.84c6.42-12.25,10.07-26.17,10.07-40.94
		c0-15.17-3.84-29.46-10.59-41.96l-4.92,6.79C1.75-187.99,4.64-176.06,4.64-163.47z"/>
	<path class="st4" d="M20.76-163.47c0,16.36-4.24,31.74-11.68,45.12l4.8,6.63c9.11-15.13,14.35-32.84,14.35-51.75
		c0-19.31-5.47-37.36-14.93-52.7l-4.78,6.6C16.31-195.97,20.76-180.23,20.76-163.47z"/>
	<path class="st4" d="M-165.63-163.47c0-16.76,4.45-32.5,12.23-46.1l-4.78-6.6c-9.46,15.34-14.93,33.39-14.93,52.7
		c0,18.91,5.25,36.62,14.35,51.75l4.8-6.63C-161.38-131.73-165.63-147.11-165.63-163.47z"/>
</g>
</svg>
